<?xml version="1.0" encoding="UTF-8"?>
<svg version="1.1" xmlns="http://www.w3.org/2000/svg" width="512" height="512">
<path d="M0 0 C1.60631375 -0.00373917 3.21262568 -0.00834175 4.81893474 -0.01373065 C9.22239671 -0.02594321 13.62578262 -0.02570223 18.02925766 -0.02334189 C22.78265987 -0.02293328 27.53603783 -0.03397713 32.28942871 -0.04345703 C41.5985763 -0.0600587 50.90769856 -0.06556621 60.21685972 -0.06668179 C67.78568818 -0.0676327 75.3545083 -0.07174518 82.92333412 -0.07808304 C104.39185563 -0.09569356 125.86035715 -0.10492226 147.32888594 -0.10342209 C149.0643704 -0.10330222 149.0643704 -0.10330222 150.83491516 -0.10317993 C151.99332087 -0.10309817 153.15172659 -0.10301641 154.3452355 -0.10293217 C173.11477188 -0.10211944 191.88422798 -0.12125445 210.65374114 -0.14945666 C229.9354645 -0.1781994 249.21714872 -0.19199618 268.49889404 -0.19026911 C279.3203491 -0.18960567 290.14172001 -0.19507797 300.96315575 -0.21662521 C310.17758803 -0.23485532 319.39189802 -0.23916933 328.60634055 -0.22560637 C333.3046855 -0.21908585 338.00279596 -0.21892637 342.70111847 -0.23631287 C347.00879044 -0.25208929 351.31604287 -0.24913358 355.62370489 -0.2317446 C357.17550564 -0.22868472 358.72733807 -0.23226864 360.27910145 -0.24346475 C373.04780211 -0.32943257 385.01838581 0.76186729 394.51094055 10.11508179 C400.12725686 16.7988621 401.44636457 23.50026596 401.43978882 32.09477234 C401.44107046 33.10573441 401.44107046 33.10573441 401.44237798 34.13711995 C401.44402077 36.38802062 401.43853115 38.63884622 401.43305969 40.88973999 C401.43277754 42.50622048 401.43293611 44.1227011 401.4335022 45.73918152 C401.43378906 50.12305438 401.42791026 54.50689988 401.42092824 58.89076638 C401.41467623 63.47385281 401.41408944 68.05693987 401.41290283 72.64002991 C401.40979497 81.31678143 401.40158892 89.99352035 401.39155334 98.67026633 C401.38037529 108.54927361 401.37487749 118.4282815 401.36985791 128.30729353 C401.35940587 148.62734457 401.34181696 168.94738426 401.3195343 189.26742554 C402.42039368 189.40914185 403.52125305 189.55085815 404.6554718 189.6968689 C412.41658104 190.90540516 418.98839341 195.85856552 423.73561859 202.01644993 C430.91216895 212.21537636 429.88759299 223.51047842 429.83711243 235.45516968 C429.84253788 237.60950696 429.84966291 239.76384053 429.85835266 241.91816711 C429.8765373 247.74866492 429.86953873 253.57887858 429.85683632 259.40938115 C429.84668482 265.52039031 429.85610785 271.63137571 429.86238098 277.74238586 C429.86965056 288.00216017 429.86008714 298.26181915 429.84101868 308.52157593 C429.81924556 320.37322827 429.82630743 332.2246054 429.8483243 344.07625109 C429.86649095 354.26421875 429.86903057 364.45210368 429.85856962 374.6400823 C429.85234244 380.71956895 429.85147796 386.79892634 429.86471558 392.87840462 C429.87629197 398.59375803 429.86821527 404.30875738 429.84513855 410.02407265 C429.83986132 412.11823184 429.84134828 414.21242096 429.85018921 416.30656815 C429.86116702 419.17156929 429.84735402 422.03544534 429.82746887 424.90037537 C429.8408532 426.13483315 429.8408532 426.13483315 429.85450792 427.39422947 C429.73139722 436.57767003 425.58015409 444.64346621 419.3195343 451.26742554 C408.2705762 460.8057839 395.21727087 460.70705841 381.38011169 460.65510559 C379.56496759 460.65928307 377.74982609 460.66476285 375.9346894 460.6714254 C370.96789531 460.68584435 366.00126766 460.68164638 361.0344646 460.67425859 C355.66965359 460.66952043 350.30487824 460.6820425 344.94007874 460.692276 C334.43818284 460.7094566 323.9363468 460.71030554 313.43444051 460.7050631 C304.89695497 460.70101881 296.3594871 460.70246804 287.82200241 460.70781136 C285.99812967 460.70893399 285.99812967 460.70893399 284.13741102 460.7100793 C281.6671424 460.71161081 279.19687378 460.71314915 276.72660516 460.71469427 C253.57013442 460.72841663 230.41369749 460.72298346 207.25722753 460.71150906 C186.08233491 460.70157688 164.90752967 460.71451759 143.73265053 460.73844325 C121.9783617 460.76283797 100.22411356 460.7724412 78.46981132 460.76579052 C66.2611861 460.76229915 54.05262808 460.76452501 41.84401321 460.78204155 C31.45120286 460.79676815 21.05850702 460.79739288 10.6656989 460.77997064 C5.36584284 460.77146216 0.06619133 460.76930756 -5.23365402 460.78462219 C-10.09077252 460.79848347 -14.9475115 460.79368746 -19.80460812 460.77438296 C-21.5561803 460.77062709 -23.30778298 460.77353293 -25.05932795 460.78399461 C-38.01793824 460.85585466 -50.42245058 460.10034841 -60.7429657 451.25961304 C-69.23853633 442.52424807 -70.98019893 434.14155324 -70.94789124 422.29995728 C-70.95242235 421.08498778 -70.95695346 419.87001829 -70.96162188 418.61823153 C-70.97208308 415.25335383 -70.97359328 411.88869008 -70.97123313 408.52381134 C-70.97082456 404.89177423 -70.98186794 401.25976886 -70.99134827 397.62774658 C-71.00795104 390.51445338 -71.0134575 383.40119332 -71.01457302 376.28788236 C-71.0155239 370.5043532 -71.0196362 364.72083497 -71.02597427 358.93730927 C-71.04358524 342.53282578 -71.05281345 326.12836844 -71.05131333 309.72387543 C-71.05123341 308.8397704 -71.0511535 307.95566538 -71.05107117 307.04476929 C-71.05098941 306.1595822 -71.05090764 305.27439511 -71.05082341 304.36238417 C-71.0500107 290.02025392 -71.06914491 275.67822873 -71.0973479 261.33612886 C-71.12609116 246.60278145 -71.13988738 231.86948526 -71.13816035 217.13610911 C-71.13749691 208.86726745 -71.14296876 200.59853592 -71.16451645 192.32971954 C-71.18274731 185.28868493 -71.18706006 178.24781036 -71.1734976 171.20676234 C-71.1669773 167.61659733 -71.16681634 164.02673918 -71.1842041 160.43660355 C-71.20288847 156.53853726 -71.1903556 152.64091661 -71.17494202 148.74282837 C-71.18522914 147.61654691 -71.19551627 146.49026545 -71.20611513 145.32985425 C-71.10959259 134.26608165 -67.81826945 126.46957963 -60.1882782 118.47445679 C-54.88513188 113.80735761 -49.7597268 111.12783861 -42.6804657 111.26742554 C-42.68712753 110.2122171 -42.69378937 109.15700867 -42.70065308 108.06982422 C-42.76163149 98.09542642 -42.80651843 88.12106676 -42.83590221 78.14652443 C-42.85151686 73.01926491 -42.87267802 67.89215663 -42.90678406 62.76498413 C-42.9395278 57.81125794 -42.95735027 52.85767667 -42.96509743 47.90385056 C-42.97061408 46.01973568 -42.9813864 44.13562818 -42.99765587 42.25157547 C-43.1997683 17.86273097 -43.1997683 17.86273097 -33.85624695 8.17758179 C-24.20398753 -0.29630485 -12.15057695 -0.02679325 0 0 Z M-26.5554657 17.07992554 C-27.38691101 17.77021851 -27.38691101 17.77021851 -28.2351532 18.47445679 C-32.03741641 23.19131844 -31.96201922 28.86940124 -31.90751648 34.65951538 C-31.90780853 35.47969147 -31.90810059 36.29986755 -31.90840149 37.14489746 C-31.90701489 39.83949588 -31.89148541 42.53381328 -31.8757782 45.22836304 C-31.87204568 47.10308684 -31.86919984 48.97781261 -31.86720276 50.85253906 C-31.85958509 55.77462192 -31.83995265 60.69658581 -31.8177948 65.61862183 C-31.79729614 70.64607128 -31.78819245 75.67354005 -31.77812195 80.70101929 C-31.75670495 90.55654859 -31.72153804 100.41195853 -31.6804657 110.26742554 C-22.4404657 110.26742554 -13.2004657 110.26742554 -3.6804657 110.26742554 C-3.65468445 107.86848022 -3.6289032 105.46953491 -3.6023407 102.99789429 C-3.56377195 100.63783747 -3.5186602 98.27798831 -3.47294617 95.9180603 C-3.44496729 94.29576775 -3.42363966 92.67334473 -3.4094696 91.0508728 C-3.30181609 79.41352776 -3.01854537 67.74430661 5.4835968 58.76742554 C12.6623596 52.90222359 20.41689588 51.14484198 29.51437855 51.13879108 C30.7434464 51.13556664 31.97251424 51.13234219 33.23882657 51.12902004 C34.59449004 51.13049102 35.9501534 51.13205873 37.30581665 51.13371277 C38.75238628 51.13184386 40.1989554 51.12954284 41.64552373 51.12684745 C45.6165503 51.12073291 49.5875558 51.12086263 53.558586 51.12204182 C57.84294959 51.12224591 62.12730643 51.11672625 66.41166687 51.11198425 C74.80399484 51.10367907 83.19631579 51.10092947 91.58864752 51.10037187 C98.41051118 51.09989666 105.23237253 51.09784162 112.05423546 51.09467125 C131.39666925 51.08586508 150.73909748 51.08125182 170.08153329 51.08200172 C171.12421181 51.08204168 172.16689033 51.08208164 173.24116516 51.0821228 C174.28511714 51.08216368 175.32906912 51.08220456 176.40465602 51.08224668 C193.32433704 51.08265316 210.24399581 51.0730832 227.1636704 51.05898444 C244.53784605 51.04462121 261.91201085 51.03771422 279.2861926 51.03857821 C289.0400001 51.0389102 298.79378428 51.03616242 308.54758644 51.02540016 C316.85196726 51.01629588 325.15631416 51.01411933 333.46069781 51.02090959 C337.6967106 51.02417513 341.93265833 51.02423021 346.16866493 51.01555634 C350.04927316 51.00769199 353.92976473 51.0091221 357.81037011 51.01784047 C359.21141886 51.01937559 360.61247631 51.01755881 362.01351479 51.01198039 C372.7014532 50.97225614 381.20564626 51.45005019 390.3195343 57.26742554 C390.39416158 52.98075817 390.44835938 48.69444347 390.48432922 44.40731812 C390.49933743 42.95152186 390.51975063 41.49577022 390.54585266 40.04013062 C390.58259106 37.93739764 390.5993399 35.83526669 390.61250305 33.73226929 C390.6282135 32.47019653 390.64392395 31.20812378 390.66011047 29.9078064 C390.14614287 24.41406375 388.44081241 19.58063519 384.0695343 15.95492554 C383.52812805 15.48441772 382.9867218 15.01390991 382.4289093 14.52914429 C377.44385774 11.54734493 372.12097894 11.01716671 366.4210062 11.01294994 C365.76023707 11.00974347 365.09946795 11.00653699 364.41867551 11.00323334 C362.21289577 10.99495696 360.00738923 11.0008492 357.80160522 11.00672913 C356.20084103 11.00370737 354.60007827 10.99981776 352.99931806 10.99513656 C348.60674286 10.98485108 344.21424923 10.98703978 339.82166731 10.99131715 C335.08197945 10.99378335 330.34231128 10.98477156 325.60263062 10.97727966 C316.31975242 10.96452798 307.03690314 10.96273953 297.75401766 10.96507993 C290.2094362 10.96686261 282.66486353 10.9651145 275.12028313 10.96085548 C274.04670118 10.9602603 272.97311923 10.95966511 271.8670045 10.95905188 C269.68606508 10.95784014 267.50512567 10.956626 265.32418626 10.9554095 C244.8699668 10.94453229 224.41576382 10.9466974 203.96154343 10.95279435 C185.24677811 10.95796445 166.53206483 10.94670592 147.8173098 10.92769613 C128.60231377 10.90832777 109.38734238 10.90005992 90.17233652 10.90381938 C79.38401892 10.90573285 68.59574563 10.90322965 57.80743599 10.88910484 C48.62395844 10.87720289 39.44055246 10.87577289 30.25707395 10.88789501 C25.57154614 10.89379183 20.88614934 10.8948609 16.20063019 10.88289261 C11.9105097 10.87206159 7.62063002 10.87510395 3.33052092 10.88915429 C1.7794542 10.89180888 0.22836877 10.88941081 -1.32267963 10.88141843 C-14.86764126 10.75791286 -14.86764126 10.75791286 -26.5554657 17.07992554 Z M13.2960968 65.88070679 C12.62707336 66.72182007 12.62707336 66.72182007 11.9445343 67.57992554 C11.48304993 68.13293335 11.02156555 68.68594116 10.5460968 69.25570679 C7.4700945 74.30074241 7.03787223 79.29292587 7.1242218 85.07211304 C7.1270517 85.79609283 7.12988159 86.52007263 7.13279724 87.26599121 C7.14391343 89.55831044 7.16900119 91.85022617 7.1945343 94.14242554 C7.20457521 95.70491986 7.21369911 97.26742036 7.22187805 98.82992554 C7.24382458 102.64257891 7.27829417 106.45493402 7.3195343 110.26742554 C9.13332077 110.2762249 9.13332077 110.2762249 10.98374939 110.28520203 C22.42867688 110.34263548 33.87341811 110.41550345 45.31815529 110.50314045 C51.20076224 110.54769918 57.08330224 110.58698672 62.96601868 110.61386108 C68.6525644 110.64003932 74.33885046 110.68054279 80.02523422 110.7306118 C82.18509545 110.74718287 84.34500149 110.75875746 86.50491714 110.76503944 C101.00671347 110.81144902 115.31841181 110.88924154 128.5070343 117.76742554 C129.50573547 118.28236572 129.50573547 118.28236572 130.52461243 118.80770874 C150.25233563 129.56331289 157.99043769 151.36890243 166.3039093 170.93148804 C166.61384827 171.6548938 166.92378723 172.37829956 167.24311829 173.12362671 C167.81566435 174.46418018 168.38087782 175.80790122 168.93696594 177.15536499 C170.81100903 181.5611031 172.88008805 186.04770241 177.3195343 188.26742554 C180.10344167 188.36330926 182.86224308 188.39753447 185.64634705 188.38768005 C186.51785255 188.38853448 187.38935805 188.3893889 188.28727281 188.39026922 C191.22464222 188.39192402 194.16195526 188.38640264 197.09931946 188.38095093 C199.19810993 188.38066903 201.2969005 188.38082684 203.39569092 188.38139343 C209.1082088 188.38168131 214.82070584 188.3757862 220.53321886 188.36881948 C226.49766466 188.36258426 232.46211089 188.36198201 238.42655945 188.36079407 C249.72773264 188.35768125 261.02889619 188.34946852 272.33006513 188.33944458 C285.19322704 188.32828192 298.0563894 188.3227726 310.91955495 188.31774914 C337.38622008 188.30728587 363.85287665 188.28968738 390.3195343 188.26742554 C390.38976723 174.21106427 390.44239244 160.15473042 390.47497082 146.09822941 C390.49060888 139.57082586 390.51181353 133.04354042 390.54585266 126.51620483 C390.57851191 120.21384461 390.5964013 113.91159781 390.60416603 107.60915947 C390.60969771 105.20787204 390.6204997 102.80659063 390.63672447 100.40535164 C390.65858555 97.03510374 390.66149754 93.66532113 390.66011047 90.29501343 C390.6708963 89.30814041 390.68168213 88.3212674 390.6927948 87.30448914 C390.66180731 80.32015976 389.90994437 73.57585972 385.48750305 67.92758179 C384.50717102 67.13674194 384.50717102 67.13674194 383.5070343 66.32992554 C382.86121399 65.7846521 382.21539368 65.23937866 381.55000305 64.67758179 C376.95567026 61.77293356 372.50340822 61.01735182 367.13751411 61.01294994 C365.29821239 61.00420165 365.29821239 61.00420165 363.42175305 60.99527663 C362.06933042 60.99890945 360.7169083 61.00273381 359.36448669 61.00672913 C357.92132777 61.00370764 356.47817044 60.99981817 355.03501594 60.99513656 C351.07343849 60.98484738 347.11195144 60.98704072 343.15036654 60.99131715 C338.87624048 60.99378271 334.60213627 60.98477232 330.32801819 60.97727966 C321.95607177 60.96452582 313.58415742 60.96273983 305.21220292 60.96507993 C298.40749052 60.96686251 291.60278786 60.96511472 284.79807663 60.96085548 C283.34569606 60.9599627 283.34569606 60.9599627 281.86397447 60.95905188 C279.89699953 60.95784014 277.93002458 60.956626 275.96304964 60.9554095 C257.51369222 60.94453128 239.06435308 60.94669777 220.61499463 60.95279435 C203.73665698 60.95796353 186.85837705 60.94670853 169.98005082 60.92769613 C152.64994659 60.90832447 135.31986968 60.90006057 117.98975456 60.90381938 C108.26000245 60.90573248 98.53029946 60.90323334 88.80055618 60.88910484 C80.51735776 60.87719863 72.2342387 60.87577761 63.95103921 60.88789501 C59.72524879 60.89378908 55.49960358 60.89486856 51.27382278 60.88289261 C47.40369934 60.8720521 43.53384267 60.87511523 39.6637318 60.88915429 C38.26539327 60.89180629 36.86703396 60.88941889 35.4687158 60.88141843 C23.65294392 60.73243554 23.65294392 60.73243554 13.2960968 65.88070679 Z M-56.56718445 131.57992554 C-61.48701357 139.03735073 -60.82668909 148.09142784 -60.81417847 156.67852783 C-60.81644402 157.82155337 -60.81870958 158.96457892 -60.82104379 160.1422416 C-60.82736949 163.96897337 -60.82655534 167.79566959 -60.82572937 171.62240601 C-60.82817873 174.36742283 -60.83209618 177.11243717 -60.83590698 179.85745239 C-60.84420139 186.5377952 -60.84696126 193.21812918 -60.84751936 199.8984767 C-60.84799504 205.32967956 -60.85005238 210.76087951 -60.85321999 216.19208145 C-60.86202281 231.59964287 -60.86663988 247.00719734 -60.86588951 262.41476129 C-60.86584956 263.24479772 -60.8658096 264.07483415 -60.86576843 264.93002319 C-60.86572755 265.76107602 -60.86568667 266.59212886 -60.86564455 267.44836511 C-60.86523806 280.91809314 -60.87480939 294.38779323 -60.8889068 307.85751317 C-60.90327669 321.6970421 -60.91017666 335.53655741 -60.90931302 349.37609398 C-60.90898129 357.14239249 -60.91171794 364.90866168 -60.92249107 372.67495346 C-60.93160407 379.28666434 -60.93376471 385.89833262 -60.92698165 392.51004706 C-60.92372063 395.88130269 -60.92473534 399.25241002 -60.9323349 402.62366867 C-60.94004986 406.28330402 -60.93541306 409.94272523 -60.92770386 413.60235596 C-60.93284742 414.66083107 -60.93799098 415.71930618 -60.94329041 416.8098563 C-60.89517489 427.15691501 -59.47233724 435.19498633 -52.6804657 443.26742554 C-46.51805451 448.38091567 -39.84248492 449.57245164 -32.00386238 449.52190113 C-31.25897417 449.52510761 -30.51408595 449.52831409 -29.74662536 449.53161773 C-27.25469535 449.53990826 -24.76300627 449.5339968 -22.27107239 449.52812195 C-20.46478107 449.53114306 -18.65849103 449.53503234 -16.85220325 449.53971452 C-11.89148286 449.5500084 -6.93083462 449.54780914 -1.97010827 449.54353392 C3.38105537 449.54106923 8.73220151 449.55007767 14.08335876 449.55757141 C24.56573453 449.57032755 35.04808468 449.57211096 45.5304669 449.56977115 C54.04996327 449.56798886 62.56945186 449.56973571 71.0889473 449.57399559 C72.30100858 449.57459078 73.51306987 449.57518597 74.76186029 449.57579919 C77.22408397 449.57701093 79.68630765 449.57822507 82.14853133 449.57944157 C105.24476774 449.59032062 128.34098955 449.58815288 151.43722679 449.58205672 C172.56979506 449.57688718 193.70231725 449.58814337 214.8348764 449.60715494 C236.53025392 449.62652333 258.22560961 449.6347911 279.92099583 449.63103169 C292.10271479 449.62911814 304.28439451 449.63162224 316.46610641 449.64574623 C326.8364194 449.65764825 337.206669 449.65907814 347.57698284 449.64695606 C352.8681839 449.64105913 358.15926895 449.6399905 363.45046234 449.65195847 C368.29513561 449.66278915 373.13959562 449.65974741 377.98425879 449.64569678 C379.73588035 449.6430421 381.48751847 449.64544054 383.23912381 449.65343264 C397.55600673 449.75178545 397.55600673 449.75178545 410.5695343 444.14242554 C418.34208775 436.01657421 419.47565308 427.8023903 419.45324707 416.82423401 C419.45551263 416.00043112 419.45777818 415.17662822 419.46011239 414.32786161 C419.46641688 411.58138343 419.46562532 408.83495505 419.46479797 406.08847046 C419.46779168 404.11354 419.47119469 402.13861013 419.47497559 400.16368103 C419.48379819 394.80821987 419.48615297 389.45277469 419.48679137 384.09730697 C419.48750285 380.74883785 419.48963903 377.40037279 419.49228859 374.05190468 C419.50153619 362.36291878 419.5056242 350.67394427 419.50483704 338.98495483 C419.50423637 328.10082564 419.51478757 317.21674603 419.5305807 306.33262938 C419.5436695 296.97784225 419.54902037 287.6230713 419.54838163 278.26827508 C419.54812704 272.68561421 419.55095667 267.10299741 419.56155968 261.52034569 C419.57126321 256.26804957 419.57130436 251.01583947 419.56404305 245.76354027 C419.56300002 243.84072748 419.5653433 241.91790927 419.5714035 239.99510574 C420.22203041 222.45255948 420.22203041 222.45255948 413.1007843 207.02523804 C406.21892907 200.23393353 399.73686724 199.1162527 390.35047913 199.14285278 C388.97562045 199.14073756 388.97562045 199.14073756 387.57298684 199.13857961 C384.49467222 199.13492302 381.41640356 199.1382647 378.33808899 199.14144897 C376.13375818 199.14005435 373.92942764 199.13815513 371.72509766 199.13578796 C366.97408076 199.13128878 362.2230725 199.12943483 357.47205353 199.12932587 C349.95880948 199.12818634 342.44561465 199.11535396 334.93238831 199.09976196 C333.66477653 199.09718911 332.39716476 199.09461626 331.09114051 199.09196544 C328.49888098 199.08669881 325.9066215 199.08141333 323.31436205 199.07610941 C316.65186269 199.06273337 309.98936209 199.05045371 303.32685852 199.03939819 C302.65833069 199.03828463 301.98980285 199.03717107 301.3010166 199.03602377 C290.47200184 199.01845564 279.64302446 199.01557926 268.81399783 199.0172486 C257.68993175 199.01852865 246.56599129 199.00042804 235.44197583 198.96623063 C229.19862985 198.9477638 222.95556378 198.93843434 216.71219635 198.95070648 C210.83845729 198.96214005 204.9652194 198.95044605 199.09154701 198.92107201 C196.93731149 198.91442974 194.78303012 198.91630107 192.62881279 198.92737007 C189.68411808 198.94124387 186.74111491 198.92434351 183.79652405 198.89993286 C182.94709189 198.91128824 182.09765974 198.92264362 181.22248721 198.9343431 C175.10332412 198.83592737 171.10938136 197.06439039 166.3195343 193.26742554 C160.6870969 187.12744982 157.97803882 177.97162535 154.78120422 170.37973022 C147.21473869 152.44604919 138.97975198 133.80727111 120.09879112 125.38004303 C110.39592327 121.49570229 100.98090777 120.82442972 90.6217804 120.84750366 C89.18797147 120.84014504 87.75416843 120.83155367 86.32037354 120.82183838 C82.46304423 120.79981163 78.60592967 120.7966818 74.74854612 120.79858589 C71.51545562 120.79870638 68.28240936 120.79011149 65.04933131 120.78180838 C57.41899072 120.76264539 49.78875953 120.75966579 42.15840149 120.76644897 C34.31015964 120.7730976 26.46238681 120.75017631 18.61424005 120.71313524 C11.84953923 120.68237695 5.08498892 120.67108444 -1.67978036 120.67497206 C-5.70871374 120.67703176 -9.7372811 120.67168046 -13.76614761 120.64707947 C-17.55364988 120.62471022 -21.34039056 120.62677326 -25.12789726 120.64700699 C-27.16554318 120.65200486 -29.20320402 120.63247646 -31.24075317 120.61199951 C-41.70565161 120.70711048 -50.01036084 123.00988003 -56.56718445 131.57992554 Z " fill="#000000" transform="translate(76.68046569824219,25.732574462890625)"/>
<path d="M0 0 C21.0746769 18.26274669 34.84328759 45.90460728 37.15625 73.66015625 C38.8211958 106.02618436 30.49690089 136.08903496 8.55322266 160.43896484 C-12.54427216 183.24327807 -40.3027896 196.3320532 -71.38671875 197.9453125 C-101.35254767 198.86229961 -130.63008234 188.49625363 -152.734375 168.14453125 C-175.19063643 146.75788089 -188.34325017 118.387299 -189.24804688 87.28491211 C-189.61390206 54.92017886 -177.49857191 26.84742666 -155.5625 3.3203125 C-140.11319282 -11.79603547 -120.67546432 -21.14388742 -99.84375 -26.33984375 C-98.94914062 -26.56800781 -98.05453125 -26.79617187 -97.1328125 -27.03125 C-61.92382432 -34.41377978 -27.04831954 -22.25541677 0 0 Z M-151.65625 15.63671875 C-171.05884126 38.05617633 -179.73166695 65.2550587 -177.84375 94.66015625 C-176.1063146 110.58963268 -171.10450465 126.47059659 -161.84375 139.66015625 C-159.60334372 137.48764107 -157.41117842 135.36072429 -155.4453125 132.93359375 C-140.24886994 114.18874328 -115.55045044 101.88527274 -91.84375 98.66015625 C-90.65652344 98.49580078 -90.65652344 98.49580078 -89.4453125 98.328125 C-59.42917812 94.77732046 -31.62398162 103.48846983 -7.84375 121.66015625 C-1.18395759 126.92819637 4.0598039 132.88341049 9.15625 139.66015625 C20.53087954 130.05177353 24.59739156 108.68988222 26.15625 94.66015625 C28.01786919 66.57882489 20.43804401 40.36018486 2.15625 18.66015625 C1.17398438 17.45939453 1.17398438 17.45939453 0.171875 16.234375 C-15.07897802 -1.66033028 -38.05415929 -13.94770445 -61.40625 -17.09375 C-95.87901723 -19.56168674 -127.7425564 -10.24131397 -151.65625 15.63671875 Z M-136.84375 129.66015625 C-137.55015625 130.21316406 -138.2565625 130.76617187 -138.984375 131.3359375 C-144.6138337 135.97913277 -149.9775896 141.45720111 -153.84375 147.66015625 C-153.27471905 152.20454739 -150.28051981 154.75860728 -147.15625 157.84765625 C-146.5775415 158.42136963 -145.99883301 158.99508301 -145.40258789 159.58618164 C-139.45228651 165.3045804 -132.99919772 169.60073654 -125.84375 173.66015625 C-124.85761719 174.22347656 -123.87148437 174.78679687 -122.85546875 175.3671875 C-99.88369987 187.64573785 -72.45578611 190.24495413 -47.49462891 182.97607422 C-30.23182463 177.55720973 -16.66103701 169.32017593 -3.84375 156.66015625 C-3.14765625 156.03625 -2.4515625 155.41234375 -1.734375 154.76953125 C0.13545929 153.13676199 0.13545929 153.13676199 2.15625 150.66015625 C1.78521151 144.03854621 -5.80354781 137.45653045 -10.49365234 133.14257812 C-47.30703043 101.48286218 -98.62139805 99.16748375 -136.84375 129.66015625 Z " fill="#000000" transform="translate(331.84375,265.33984375)"/>
<path d="M0 0 C9.22335914 8.73703657 13.32377661 19.76401173 14.14453125 32.19921875 C14.32133248 45.26643687 9.51235571 56.85080012 0.52734375 66.3359375 C-9.94071046 75.45834868 -22.11703327 78.9976339 -35.83203125 78.19921875 C-47.52047328 76.68263191 -58.0072318 71.24394199 -65.8125 62.375 C-73.79350472 51.67143032 -76.90700666 39.72301043 -75.37890625 26.46875 C-73.33491642 15.3043366 -67.92113144 4.85767471 -58.875 -2.25 C-39.82346255 -14.95102497 -17.88942762 -14.45610312 0 0 Z M-55.8125 10.375 C-62.22760498 17.70654854 -65.35622954 26.80220446 -64.75 36.5625 C-63.38224926 45.65658737 -58.78043535 54.08627456 -51.8125 60.1015625 C-43.85861347 65.86813023 -35.26796514 68.26222463 -25.5078125 66.94140625 C-15.52447168 64.84345782 -7.87742092 60.10130792 -2 51.6875 C2.61886824 43.5927377 4.29801305 34.45748376 2.1875 25.375 C-0.51506518 15.79184996 -5.88337415 8.40884485 -14.5703125 3.40625 C-28.97582792 -3.21928322 -44.50710036 -1.13595236 -55.8125 10.375 Z " fill="#000000" transform="translate(286.8125,274.625)"/>
</svg>
